<mxfile host="65bd71144e">
    <diagram id="Yn4TW_a87Ku9cnX_9ziY" name="Page-1">
        <mxGraphModel dx="1063" dy="800" grid="1" gridSize="10" guides="1" tooltips="1" connect="1" arrows="1" fold="1" page="1" pageScale="1" pageWidth="827" pageHeight="1169" math="0" shadow="0">
            <root>
                <mxCell id="0"/>
                <mxCell id="1" parent="0"/>
                <mxCell id="2" value="" style="rounded=0;whiteSpace=wrap;html=1;" vertex="1" parent="1">
                    <mxGeometry x="40" y="80" width="480" height="280" as="geometry"/>
                </mxCell>
                <mxCell id="3" value="X1" style="ellipse;whiteSpace=wrap;html=1;aspect=fixed;fillColor=none;fontSize=20;" vertex="1" parent="1">
                    <mxGeometry x="110" y="110" width="200" height="200" as="geometry"/>
                </mxCell>
                <mxCell id="4" value="X3" style="ellipse;whiteSpace=wrap;html=1;aspect=fixed;fillColor=none;fontSize=20;" vertex="1" parent="1">
                    <mxGeometry x="269" y="130" width="145" height="145" as="geometry"/>
                </mxCell>
                <mxCell id="6" value="A" style="text;html=1;strokeColor=none;fillColor=none;align=center;verticalAlign=middle;whiteSpace=wrap;rounded=0;fontSize=20;" vertex="1" parent="1">
                    <mxGeometry x="110" y="110" width="40" height="20" as="geometry"/>
                </mxCell>
                <mxCell id="7" value="B" style="text;html=1;strokeColor=none;fillColor=none;align=center;verticalAlign=middle;whiteSpace=wrap;rounded=0;fontSize=20;" vertex="1" parent="1">
                    <mxGeometry x="380" y="130" width="40" height="20" as="geometry"/>
                </mxCell>
                <mxCell id="9" value="X2" style="text;html=1;strokeColor=none;fillColor=none;align=center;verticalAlign=middle;whiteSpace=wrap;rounded=0;fontSize=20;" vertex="1" parent="1">
                    <mxGeometry x="269" y="200" width="40" height="20" as="geometry"/>
                </mxCell>
            </root>
        </mxGraphModel>
    </diagram>
</mxfile>